<svg xmlns="http://www.w3.org/2000/svg" viewBox="0 0 256 256">
  <defs>
    <linearGradient id="g1" x1="0" x2="1" y1="0" y2="1">
      <stop offset="0" stop-color="#22d3ee"/>
      <stop offset="1" stop-color="#6d5efc"/>
    </linearGradient>
  </defs>
  <rect x="8" y="8" width="240" height="240" rx="28" fill="url(#g1)" opacity="0.85"/>
  <g fill="white" opacity="0.95">
    <path d="M96 112V88a32 32 0 0 1 64 0v24h16V88a48 48 0 0 0-96 0v24z"/>
    <path d="M64 120a24 24 0 0 1 24-24h80a24 24 0 0 1 24 24v64a24 24 0 0 1-24 24H88a24 24 0 0 1-24-24v-64zm56 28v28h16v-28a12 12 0 1 0-16 0z"/>
    <text x="128" y="214" text-anchor="middle" font-size="40" font-family="Arial, Helvetica, sans-serif" font-weight="800">AI</text>
  </g>
</svg>
